<?xml version="1.0" encoding="UTF-8"?>
<svg width="22px" height="22px" viewBox="0 0 22 22" version="1.1" xmlns="http://www.w3.org/2000/svg" xmlns:xlink="http://www.w3.org/1999/xlink">
    <g id="页面-1" stroke="none" stroke-width="1" fill="none" fill-rule="evenodd">
        <g id="产品服务-软件（设备连接管理平台）" transform="translate(-320.000000, -1895.000000)" fill="currentColor" fill-rule="nonzero">
            <g id="编组-7" transform="translate(260.000000, 1877.000000)">
                <g id="编组-5" transform="translate(60.000000, 2.000000)">
                    <g id="shebeilianjie" transform="translate(0.000000, 16.000000)">
                        <path d="M17.0893953,0 L4.91060465,0 C2.19846512,0 0,2.19846512 0,4.91060465 L0,10.3131395 C0,13.0237442 2.19846512,15.1247442 4.91060465,15.1247442 L9.625,15.1247442 L9.625,16.5 L8.25,16.5 L8.25,22 L13.75,22 L13.75,16.5 L12.375,16.5 L12.375,15.125 L17.0893953,15.125 C19.8017907,15.125 22,13.0255349 22,10.3133953 L22,4.91060465 C22,2.19846512 19.8012791,0 17.0893953,0 Z M19.9926279,9.92711628 C19.9926279,12.1122791 18.7693256,13.092814 16.9942326,13.092814 L5.00013953,13.092814 C3.22504651,13.092814 2.00174419,12.1122791 2.00174419,9.92711628 L2.00174419,5.17844186 C2.00174419,2.99327907 3.22504651,2.01274419 5.00013953,2.01274419 L16.9942326,2.01274419 C18.7693256,2.01274419 19.9926279,2.99327907 19.9926279,5.17844186 L19.9926279,9.92711628 Z" id="形状"></path>
                        <path d="M15.125,18.3333333 L22,18.3333333 L22,20.1666667 L15.125,20.1666667 L15.125,18.3333333 Z M0,18.3333333 L6.875,18.3333333 L6.875,20.1666667 L0,20.1666667 L0,18.3333333 Z" id="形状"></path>
                    </g>
                </g>
            </g>
        </g>
    </g>
</svg>