<?xml version="1.0" encoding="UTF-8"?>
<svg width="22px" height="22px" viewBox="0 0 22 22" version="1.1" xmlns="http://www.w3.org/2000/svg" xmlns:xlink="http://www.w3.org/1999/xlink">
    <g id="页面-1" stroke="none" stroke-width="1" fill="none" fill-rule="evenodd">
        <g id="产品服务-软件（设备连接管理平台）" transform="translate(-556.000000, -1895.000000)" fill="currentColor" fill-rule="nonzero">
            <g id="编组-7" transform="translate(260.000000, 1877.000000)">
                <g id="编组-4" transform="translate(296.000000, 2.000000)">
                    <g id="guize-3" transform="translate(0.000000, 16.000000)">
                        <path d="M19.6428571,2.3047619 L15.6035,2.3047619 C15.2484447,0.95042123 14.0013302,0.00245478778 12.5714286,0 C10.8356765,0 9.42857143,1.37583607 9.42857143,3.07301587 C9.42857143,4.77019568 10.8356765,6.14603175 12.5714286,6.14603175 C14.0013302,6.14357696 15.2484447,5.19561052 15.6035,3.84126984 L19.6428571,3.84126984 C20.0767952,3.84126984 20.4285714,4.18522886 20.4285714,4.60952381 L20.4285714,11.5238095 C20.4285714,11.9481045 20.0767952,12.2920635 19.6428571,12.2920635 L12.1785714,12.2920635 C11.7446334,12.2920635 11.3928571,12.6360225 11.3928571,13.0603175 C11.3928571,13.4846124 11.7446334,13.8285714 12.1785714,13.8285714 L19.6428571,13.8285714 C20.9446712,13.8285714 22,12.7966944 22,11.5238095 L22,4.60952381 C22,3.33663896 20.9446712,2.3047619 19.6428571,2.3047619 Z M12.5714286,4.60952386 C12.0098709,4.60938658 11.491045,4.3163298 11.2103877,3.84074512 C10.9297304,3.36516044 10.9298801,2.77930049 11.2107806,2.30385304 C11.491681,1.8284056 12.0106566,1.53560244 12.5722143,1.53573963 C13.4403073,1.53595184 14.1438598,2.22421383 14.1436429,3.07301587 C14.1434259,3.92181791 13.4395216,4.60973594 12.5714286,4.60952386 L12.5714286,4.60952386 Z" id="形状"></path>
                        <path d="M18.8569919,15.7643618 C17.4482175,15.7643618 16.2696555,16.6903083 15.8705158,17.9576391 L7.85707996,17.9576391 C7.43749568,17.9562704 7.09366368,17.626882 7.07765763,17.2109583 C8.61197563,16.8224775 9.61335786,15.3599635 9.41183085,13.8019096 C9.21030383,12.2438556 7.86914887,11.0795047 6.28566397,11.0878643 C5.12517326,11.0878643 4.12339556,11.7184121 3.57889992,12.6466968 L2.35712399,12.6466968 C1.92318944,12.6466968 1.57141599,12.2977403 1.57141599,11.8672806 L1.57141599,4.85253443 C1.57141599,4.42207473 1.92318944,4.07311819 2.35712399,4.07311819 L7.46422596,4.07311819 C7.89816051,4.07311819 8.24993396,3.72416166 8.24993396,3.29370195 C8.24993396,2.86324225 7.89816051,2.51428571 7.46422596,2.51428571 L2.35712399,2.51428571 C1.05532036,2.51428571 0,3.56115532 0,4.85253443 L0,11.8672806 C0,13.1586597 1.05532036,14.2055293 2.35712399,14.2055293 L3.14283198,14.2055293 C3.1451668,15.6254812 4.11677111,16.8635379 5.50388451,17.214076 C5.52234241,18.490577 6.57014271,19.5161048 7.85707996,19.517251 L15.7801594,19.517251 C16.1168327,21.1220188 17.648713,22.1941007 19.28566,21.9705653 C20.9226071,21.7470299 22.1054975,20.3042291 21.9925446,18.6689108 C21.8795917,17.0335926 20.5093762,15.7643242 18.8569919,15.7643618 Z M4.71424793,14.2055293 C4.71438832,13.6484729 5.01410308,13.1338058 5.50049261,12.8553981 C5.98688214,12.5769905 6.5860523,12.577139 7.07230148,12.8557878 C7.55855066,13.1344366 7.85800604,13.6492523 7.85786572,14.2063087 C7.85764868,15.0674433 7.15375001,15.7653564 6.28566397,15.7651412 C5.41757793,15.7649259 4.71403103,15.0666639 4.71424793,14.2055293 Z M18.8569919,20.4408593 C18.2954387,20.44072 17.776617,20.1434053 17.4959619,19.6609106 C17.2153069,19.178416 17.2154566,18.5840438 17.4963548,18.1016884 C17.7772529,17.619333 18.2962244,17.3222756 18.8577776,17.3224148 C19.7258637,17.3226301 20.4294106,18.0208921 20.4291936,18.8820267 C20.4289766,19.7431614 19.725078,20.4410744 18.8569919,20.4408593 L18.8569919,20.4408593 Z" id="形状"></path>
                    </g>
                </g>
            </g>
        </g>
    </g>
</svg>