<?xml version="1.0" encoding="UTF-8"?>
<svg width="22px" height="22px" viewBox="0 0 22 22" version="1.1" xmlns="http://www.w3.org/2000/svg" xmlns:xlink="http://www.w3.org/1999/xlink">
    <g id="页面-1" stroke="none" stroke-width="1" fill="none" fill-rule="evenodd">
        <g id="产品服务-软件（设备连接管理平台）" transform="translate(-796.000000, -1894.000000)" fill="currentColor" fill-rule="nonzero">
            <g id="编组-7" transform="translate(260.000000, 1877.000000)">
                <g id="编组-2" transform="translate(536.000000, 2.000000)">
                    <g id="daping-2" transform="translate(0.000000, 15.000000)">
                        <g id="daping" transform="translate(0.000000, 2.000000)">
                            <polygon id="路径" points="8.0333652 6.51315789 13.0096558 9.9 18.15 6.02105263 17.2477055 5.03684211 12.9276291 8.33684211 7.92399618 4.95 3.85 8.51052632 4.75229446 9.35 8.0333652 6.51315789"></polygon>
                            <path d="M22,0 L0,0 L0,15.29 L7.1775,15.29 L4.125,18.26 L5.115,19.25 L9.1575,15.29 L12.815,15.29 L16.8575,19.25 L17.8475,18.26 L14.8225,15.29 L22,15.29 L22,0 Z M20.57,13.915 L1.43,13.915 L1.43,1.375 L20.5975,1.375 L20.5975,13.915 L20.57,13.915 Z" id="形状"></path>
                        </g>
                    </g>
                </g>
            </g>
        </g>
    </g>
</svg>