<?xml version="1.0" encoding="UTF-8"?>
<svg width="22px" height="22px" viewBox="0 0 22 22" version="1.1" xmlns="http://www.w3.org/2000/svg" xmlns:xlink="http://www.w3.org/1999/xlink">
    <g id="页面-1" stroke="none" stroke-width="1" fill="none" fill-rule="evenodd">
        <g id="产品服务-软件（设备连接管理平台）" transform="translate(-1035.000000, -1895.000000)" fill="currentColor" fill-rule="nonzero">
            <g id="编组-7" transform="translate(260.000000, 1877.000000)">
                <g id="编组-3" transform="translate(775.000000, 2.000000)">
                    <g id="beikongshuiwupingtaimenhu-tubiao_zutaigongju-da-2" transform="translate(0.000000, 16.000000)">
                        <g id="beikongshuiwupingtaimenhu-tubiao_zutaigongju-da" transform="translate(0.000000, 2.000000)">
                            <path d="M21.56,0 L0.439999993,0 C0.19799999,0 0,0.199596764 0,0.443548404 L0,15.5241935 C0,15.7681452 0.19799999,15.9677419 0.439999993,15.9677419 L5.39,15.9677419 L5.39,17.2983871 C5.39,17.5423387 5.58799999,17.7419355 5.82999999,17.7419355 L16.17,17.7419355 C16.412,17.7419355 16.61,17.5423387 16.61,17.2983871 L16.61,15.9677419 L21.56,15.9677419 C21.802,15.9677419 22,15.7681452 22,15.5241935 L22,0.443548404 C22,0.199596788 21.802,0 21.56,0 Z M15.73,16.8548387 L6.26999999,16.8548387 L6.26999999,15.9677419 L15.73,15.9677419 L15.73,16.8548387 Z M21.12,15.0806452 L0.879999987,15.0806452 L0.879999987,0.887096784 L21.12,0.887096784 L21.12,15.0806452 L21.12,15.0806452 Z" id="形状"></path>
                            <polygon id="路径" points="3.5483871 3.5483871 8.51612903 3.5483871 8.51612903 4.25806452 3.5483871 4.25806452"></polygon>
                            <path d="M8.56048386,2.12903226 L2.35080645,2.12903226 C2.22883065,2.12903226 2.12903226,2.22866582 2.12903226,2.35044015 L2.12903226,13.4208348 C2.12903226,13.5426092 2.22883065,13.6422427 2.35080645,13.6422427 L8.56048386,13.6422427 C8.68245966,13.6422427 8.78225808,13.5426092 8.78225808,13.4208348 L8.78225808,2.35044015 C8.78225808,2.22866582 8.68245968,2.12903226 8.56048386,2.12903226 L8.56048386,2.12903226 Z M3.01612904,3.01466382 L7.89516129,3.01466382 L7.89516129,3.90029541 L3.01612904,3.90029541 L3.01612904,3.01466382 Z M3.01612904,12.7566112 L3.01612904,4.78592697 L7.89516129,4.78592697 L7.89516129,12.7566112 L3.01612904,12.7566112 Z M19.6225806,7.33211777 L16.0741935,5.60735026 C16.0120968,5.57856724 15.9455645,5.56306869 15.8790323,5.56306869 C15.8125,5.56306869 15.7459677,5.57856724 15.683871,5.60735026 L12.1354839,7.33211777 C11.9846774,7.40739645 11.8870968,7.56016791 11.8870968,7.73065196 L11.8870968,12.0259651 C11.8870968,12.1964492 11.9846774,12.3492206 12.1354839,12.4244993 L15.683871,14.1492668 C15.7459677,14.1780498 15.8125,14.1935484 15.8790323,14.1935484 C15.9455645,14.1935484 16.0120968,14.1780498 16.0741935,14.1492668 L19.6225806,12.4244993 C19.7756048,12.3514347 19.8709677,12.1964492 19.8709677,12.0259651 L19.8709677,7.73065196 C19.8709677,7.56016788 19.7733871,7.40739645 19.6225806,7.33211777 Z M15.8790323,6.49741 L18.4804435,7.76164907 L15.8745968,9.04360078 C15.8590726,9.03474447 15.8435484,9.02367407 15.8280242,9.01703182 L13.277621,7.76386315 L15.8790323,6.49741 Z M12.7741935,8.50336552 L15.4354839,9.81188618 L15.4354839,13.0422273 L12.7741935,11.7492053 L12.7741935,8.50336552 Z M16.3225806,13.0422273 L16.3225806,9.81188618 L18.983871,8.50336552 L18.983871,11.7492053 L16.3225806,13.0422273 L16.3225806,13.0422273 Z" id="形状"></path>
                            <path d="M7.07759371,6.35752688 L3.98953792,6.35752688 C3.74690496,6.35752688 3.5483871,6.17123657 3.5483871,5.94354839 C3.5483871,5.71586021 3.74690496,5.5295699 3.98953792,5.5295699 L7.07759371,5.5295699 C7.32022667,5.5295699 7.51874456,5.71586021 7.51874456,5.94354839 C7.51874456,6.17123657 7.3202267,6.35752688 7.07759371,6.35752688 Z M19.4298169,3.66666668 L10.3862249,3.66666668 C10.143592,3.66666668 9.9450741,3.48037636 9.9450741,3.25268817 C9.9450741,3.02499997 10.143592,2.83870968 10.3862249,2.83870968 L19.4298169,2.83870968 C19.6724499,2.83870968 19.8709677,3.02499999 19.8709677,3.25268817 C19.8709677,3.48037634 19.6724499,3.66666668 19.4298169,3.66666668 Z M14.7977332,5.11559141 L10.3862249,5.11559141 C10.143592,5.11559141 9.9450741,4.9293011 9.9450741,4.7016129 C9.9450741,4.4739247 10.143592,4.28763441 10.3862249,4.28763441 L14.7977332,4.28763441 C15.0403662,4.28763441 15.238884,4.47392472 15.238884,4.7016129 C15.238884,4.92930108 15.0403662,5.11559141 14.7977332,5.11559141 Z M11.9302528,6.56451615 L10.3862249,6.56451615 C10.143592,6.56451615 9.9450741,6.37822583 9.9450741,6.15053763 C9.9450741,5.92284944 10.143592,5.73655915 10.3862249,5.73655915 L11.9302528,5.73655915 C12.1728858,5.73655915 12.3714037,5.92284946 12.3714037,6.15053763 C12.3714037,6.37822581 12.1728858,6.56451615 11.9302528,6.56451615 Z M4.43068876,7.80645161 L3.98953792,7.80645161 C3.74690496,7.80645161 3.5483871,7.6201613 3.5483871,7.39247312 C3.5483871,7.16478495 3.74690496,6.97849463 3.98953792,6.97849463 L4.43068876,6.97849463 C4.67332172,6.97849463 4.87183958,7.16478495 4.87183958,7.39247312 C4.87183958,7.6201613 4.67332172,7.80645161 4.43068876,7.80645161 L4.43068876,7.80645161 Z" id="形状"></path>
                            <path d="M5.95037222,9.22580645 L3.98511166,9.22580645 C3.74491314,9.22580645 3.5483871,9.06612904 3.5483871,8.87096774 C3.5483871,8.67580645 3.74491314,8.51612903 3.98511166,8.51612903 L5.95037222,8.51612903 C6.19057073,8.51612903 6.38709677,8.67580645 6.38709677,8.87096774 C6.38709677,9.06612904 6.19057073,9.22580645 5.95037222,9.22580645 Z" id="路径"></path>
                            <path d="M5.25161289,10.6451613 L3.97419354,10.6451613 C3.73999999,10.6451613 3.5483871,10.4854839 3.5483871,10.2903226 C3.5483871,10.0951613 3.73999999,9.93548387 3.97419354,9.93548387 L5.25161289,9.93548387 C5.48580644,9.93548387 5.67741935,10.0951613 5.67741935,10.2903226 C5.67741935,10.4854839 5.48580646,10.6451613 5.25161289,10.6451613 Z" id="路径"></path>
                        </g>
                    </g>
                </g>
            </g>
        </g>
    </g>
</svg>